<?xml version="1.0" encoding="UTF-8"?>
<svg id="Capa_2" data-name="Capa 2" xmlns="http://www.w3.org/2000/svg" viewBox="0 0 219.12 48.69">
  <defs>
    <style>
      .cls-1 {
        fill: #fff;
      }

      .cls-2 {
        fill: #c44b24;
      }
    </style>
  </defs>
  <g id="Capa_1-2" data-name="Capa 1">
    <g>
      <path class="cls-1" d="M141.22,12.38v5.48h-11.29v-5.48h11.29ZM141.22,20.06v28.1h-11.29v-28.1h11.29Z"/>
      <path class="cls-1" d="M174.04,37.25l4.01,8.74s-6.55,2.32-17.82,2.32c-8.9,0-10.56-1.77-10.56-14.32v-5.64h-5.6v-8.43h5.6v-5.87h11.29v5.87h13.7v8.43h-13.7v5.64s-.36,4.97,3.88,4.97,9.21-1.7,9.21-1.7Z"/>
      <path class="cls-1" d="M46.26,30.78c0,13.25-9.03,17.38-23.34,17.38C7.23,48.16,0,42.34,0,30.15,0,17.04,13.21,13.4,22.62,13.4s23.65,2.78,23.65,17.38ZM23.04,39.23c6.61,0,10.79-2.01,10.79-8.45,0-7.1-6.59-8.45-10.93-8.45s-10.45,1.77-10.45,8.14c0,5.92,3.34,8.76,10.6,8.76h0Z"/>
      <path class="cls-1" d="M57.59,30.96s1.1.59,3,1.54c1.68-1.54,4.42-3.5,9.62-3.17,4.55.28,8.71,2.35,8.71,2.35l4.22-8.6s-3.76-3.04-11.53-3.04c-6.78,0-10.27,1.81-11.93,3.89v-3.9h0s-11.28,0-11.28,0v28.13h11.29v-12.1c-.75-1.65-1.45-3.35-2.09-5.1Z"/>
      <circle class="cls-2" cx="37.73" cy="5.68" r="5.68"/>
      <path class="cls-1" d="M109.17,20.03c-6.28,0-10.79,1.71-13.28,2.96v-8.87h-11.29v34.05h11.29v-1.81s0,0,0,0v-.05s.08.05.12.08c4.58,1.15,9.02,1.88,12.93,1.93,10.31,0,18.17-2.76,18.17-14.54,0-9.44-7.21-13.74-17.95-13.74ZM106.7,39.87c-5.85,0-8.88-.53-10.81-3.59v-3.85c1.53-4.18,9.36-4.18,11.49-4.18s7.7-.2,7.7,5.83c0,5.1-4.7,5.79-8.38,5.79Z"/>
      <path class="cls-1" d="M216.94,27.02c-3.02-6.9-14.61-7.66-20.14-7.66-10.31,0-17.39,2.98-17.64,3.08l2.56,7.67c.05-.02,5.22-1.99,14.41-1.99,6.19,0,9.17.6,10.59,4.71-2.64-.96-6.05-1.77-10.91-1.77-8.98,0-17.73,2.22-17.73,8.45,0,8.87,10.46,9.2,17.94,9.2,3.65,0,6.91-.8,9.45-1.85,1.75-1.01,2.71-2.25,2.71-3.76.1,1.76.06,3.46-.11,5.11h11.05c0-9.1-.14-16.52-2.18-21.17ZM207.17,39.41c-.48.75-4.76,2.16-9.88,2.16-3.31,0-6.95-.28-6.95-2.06,0-1.28,2.04-1.9,7.51-1.9,8.19,0,9.02,1.02,9.31,1.29.02.21,0,.23,0,.51Z"/>
    </g>
  </g>
</svg>